<svg width="387" height="444" xmlns="http://www.w3.org/2000/svg">
    <path fill="#4DBA87" d="M271.704 109.93l-112.63 178.357-86.86-178.356H.46l192.85 334.12 192.85-334.12z" />
    <path fill="#374A5D" fill-rule="evenodd" d="M290.27 199.636c-16.309 30.519-95.935 171.997-96.484 171.997-.548 0-81.134-142.44-99.499-177.77l-8.908-17.047V149.87l-3.563 3.162c-2.604 2.612-3.7 3.024-4.523 1.512-2.741-4.399-8.771-33.13-8.908-42.066-.137-8.386.548-10.998 4.796-19.934 2.741-5.636 7.95-14.572 11.65-19.934l6.578-9.623.137-16.496c0-14.023.411-17.322 2.878-21.996 4.112-7.973 12.335-13.335 20.695-13.472 3.7 0 7.4.275 8.223.825.96.687-.274 4.536-3.837 11.547-2.878 5.774-5.071 10.86-4.66 11.136.274.412 3.29-1.788 6.578-4.675 6.305-5.636 9.731-7.698 16.72-10.31l4.112-1.512-3.974-2.062-3.975-2.062 3.29-2.75c7.537-5.911 16.994-9.76 26.04-10.448 12.197-.825 21.105 2.2 30.15 10.31l6.99 6.324-.548-5.91-.411-6.05 6.852-2.612C217.085-1.21 230.38.025 241.343 5.8c7.812 4.261 19.05 14.847 27.822 26.395 5.756 7.423 5.893 3.849.137-7.561-2.878-5.774-4.934-10.723-4.66-11.136 1.508-1.374 14.253-.55 18.502 1.238 2.467.962 6.167 3.711 8.086 6.048 5.756 6.874 6.99 12.785 6.167 28.732l-.685 14.297 6.304 9.21c8.223 12.373 15.624 27.908 16.31 35.056.822 7.149-3.838 30.52-9.32 47.016-4.797 14.435-5.756 15.81-9.183 12.647-1.37-1.237-3.015-2.337-3.426-2.337-.548 0-.96 5.087-.96 11.41 0 10.724-.273 11.823-6.166 22.821zm-110.6-29.556c10.416 5.36 15.761 6.048 23.025 2.611 4.66-2.337 4.934-2.337 6.715.138 1.782 2.337 2.056 2.062 5.345-2.887 2.741-4.124 7.675-15.534 7.675-17.734 0-.137-5.619-4.811-12.471-10.035-8.635-6.737-13.706-9.761-16.31-9.761-2.604 0-7.811 3.024-16.309 9.76-10.827 8.249-12.471 10.174-11.649 12.648 2.33 7.836 5.07 10.723 13.98 15.26zm-53.86-29.007c-.55 6.598-.55 11.96 0 11.96.547 0 4.248-1.925 8.222-4.124l7.264-4.124-.685-7.974c-.686-7.423-.274-8.798 6.167-21.72 4.934-9.761 7.949-14.16 10.553-15.397 1.919-.963 3.7-1.65 3.974-1.65s-1.644 5.636-4.248 12.51c-4.66 12.372-4.66 12.51-2.33 18.421 1.233 3.3 3.426 7.011 4.797 8.386 2.33 2.062 3.015 1.787 12.608-4.124 14.802-9.348 16.584-11.548 17.132-22.546.685-11.96-1.645-15.26-13.431-18.833-4.523-1.375-8.634-2.887-8.909-3.437-.274-.55 1.234-3.025 3.29-5.637l3.974-4.674h38.923l4.111 4.812 3.975 4.811-5.208 2.337c-2.878 1.375-6.305 2.475-7.538 2.475-1.234 0-4.112 1.65-6.441 3.574-3.975 3.3-4.249 4.124-4.249 12.923 0 11.547 2.193 14.71 17.268 24.057 9.731 6.05 10.416 6.324 12.746 4.262 1.37-1.375 3.564-5.086 4.797-8.386l2.33-6.049-5.482-14.16c-3.152-7.835-5.62-14.709-5.62-15.121 0-.413 6.305 1.512 13.98 4.536l13.98 5.362-10.143-10.31-10.141-10.311-2.879 3.712-3.015 3.574-6.304-11.135c-3.563-6.187-6.441-11.685-6.441-12.373 0-1.924 7.4-4.949 7.949-3.162.274.963 6.441 1.512 16.857 1.512h16.446l-2.467-4.261c-3.974-6.874-17.131-18.284-26.862-23.233l-9.045-4.812-10.964 5.5-11.102 5.36-5.208-5.086c-6.167-6.049-13.43-9.21-20.968-9.21h-5.62l3.016 2.474 3.152 2.475-7.95 4.536c-10.552 6.049-21.79 16.772-25.628 24.745-2.467 5.087-3.152 9.073-3.426 21.171-.274 11.273-.96 15.947-3.015 19.934-3.29 6.46-5.071 15.396-3.152 15.396.822 0 1.918-.55 2.33-1.374 2.192-3.437 3.015-.825 1.37 4.536-.96 3.162-2.193 11.136-2.74 17.872zm42.348-62.275c-3.426 6.049-6.579 10.998-6.853 10.998s-2.055-2.475-3.974-5.5c-2.193-3.436-4.523-5.498-6.304-5.498-5.894 0-14.94-7.424-14.94-12.373 0-.825 5.62-1.375 14.94-1.375 9.456 0 15.212-.55 15.486-1.512.549-1.787 7.95 1.238 7.95 3.162 0 .688-2.879 6.186-6.305 12.098z" />
</svg>
