<?xml version="1.0" encoding="UTF-8"?>
<svg width="387px" height="444px" viewBox="0 0 387 444" version="1.1" xmlns="http://www.w3.org/2000/svg" xmlns:xlink="http://www.w3.org/1999/xlink">
    <!-- Generator: Sketch 42 (36781) - http://www.bohemiancoding.com/sketch -->
    <title>Vue.js_Logo</title>
    <desc>Created with Sketch.</desc>
    <defs></defs>
    <g id="Page-1" stroke="none" stroke-width="1" fill="none" fill-rule="evenodd">
        <g id="Vue.js_Logo">
            <g id="svg2" transform="translate(0.000000, 108.000000)">
                <g id="g10" transform="translate(194.000000, 168.500000) scale(-1, 1) rotate(-180.000000) translate(-194.000000, -168.500000) translate(0.000000, 0.000000)">
                    <g id="g12" transform="translate(0.122987, 0.016901)" fill-rule="nonzero" fill="#4DBA87">
                        <polygon id="path14" points="271.581069 335.052166 158.951452 156.695801 72.091713 335.052166 0.335954537 335.052166 193.185647 0.931808647 386.035339 335.052166"></polygon>
                    </g>
                    <g id="g16" transform="translate(76.744197, 133.651680)"></g>
                </g>
            </g>
            <g id="0a834586d8d488ed414c1a9980ab7f71" transform="translate(68.000000, 0.000000)" fill="#374A5D">
                <g id="layer102">
                    <path d="M222.270514,199.636117 C205.961424,230.155027 126.334689,371.633411 125.786485,371.633411 C125.23828,371.633411 44.6521868,229.192719 26.2873288,193.862269 L17.3790022,176.81567 L17.3790022,163.343358 L17.3790022,149.871046 L13.8156716,153.032915 C11.2116992,155.644894 10.1152898,156.057312 9.29298268,154.545114 C6.55195911,150.145991 0.521707244,121.414224 0.384656066,112.478507 C0.247604887,104.09268 0.932860781,101.480701 5.18144732,92.5449844 C7.9224709,86.908609 13.1304157,77.9728919 16.8307975,72.6114617 L23.4092541,62.9883817 L23.5463053,46.4916733 C23.5463053,32.4694711 23.9574588,29.1701294 26.42438,24.496062 C30.5359154,16.5226529 38.7589861,11.1612227 47.119108,11.0237501 C50.8194898,11.0237501 54.5198717,11.2986952 55.3421787,11.8485855 C56.301537,12.5359484 55.0680764,16.3851803 51.5047457,23.3962814 C48.626671,29.1701294 46.4338521,34.2566145 46.8450057,34.5315596 C47.119108,34.9439774 50.134234,32.7444162 53.4234622,29.8574922 C59.7278165,24.2211169 63.1540959,22.1590283 70.1437061,19.5470495 L74.2552414,18.0348512 L70.2807572,15.9727626 L66.306273,13.9106741 L69.5955013,11.1612227 C77.1333162,5.24990213 86.5898475,1.40067015 95.6352253,0.7133073 C107.83278,-0.111528123 116.741107,2.91286843 125.786485,11.0237501 L132.776095,17.3474883 L132.22789,11.4361678 L131.816736,5.3873747 L138.669295,2.77539586 C149.085185,-1.21130869 162.379149,0.0259444476 173.343244,5.79979241 C181.155161,10.0614421 192.393357,20.64683 201.164633,32.1945259 C206.920782,39.6180447 207.057834,36.0437579 201.301684,24.6335346 C198.423609,18.8596866 196.367842,13.9106741 196.641944,13.4982564 C198.149507,12.1235307 210.895267,12.9483661 215.143853,14.7355095 C217.610774,15.6978175 221.311156,18.4472689 223.229873,20.7843026 C228.986022,27.6579311 230.219483,33.5692516 229.397176,49.5160698 L228.71192,63.8132172 L235.016274,73.0238794 C243.239345,85.3964107 250.640108,100.930811 251.325364,108.079385 C252.147671,115.227959 247.487931,138.598296 242.005884,155.095004 C237.209093,169.529624 236.249735,170.90435 232.823455,167.74248 C231.452943,166.505227 229.808329,165.405447 229.397176,165.405447 C228.848971,165.405447 228.437818,170.491932 228.437818,176.81567 C228.437818,187.538531 228.163715,188.638311 222.270514,199.636117 Z M111.670213,170.079514 C122.086103,175.440944 127.431099,176.128307 134.694811,172.691493 C139.354551,170.354459 139.628654,170.354459 141.410319,172.828966 C143.191984,175.165999 143.466087,174.891054 146.755315,169.942042 C149.496339,165.817864 154.430181,154.407641 154.430181,152.20808 C154.430181,152.070607 148.811083,147.39654 141.958524,142.172582 C133.324299,135.436426 128.253406,132.41203 125.649433,132.41203 C123.045461,132.41203 117.837516,135.436426 109.340343,142.172582 C98.5133001,150.420937 96.8686859,152.345553 97.690993,154.820059 C100.020863,162.655995 102.761887,165.542919 111.670213,170.079514 Z M57.8091,141.072802 C57.2608952,147.671485 57.2608952,153.032915 57.8091,153.032915 C58.3573047,153.032915 62.0576865,151.108299 66.0321707,148.908738 L73.2958832,144.784561 L72.6106273,136.811152 C71.9253714,129.387633 72.3365249,128.012908 78.7779303,115.090486 C83.7117727,105.329933 86.7268987,100.930811 89.3308711,99.6935581 C91.2495876,98.7312501 93.0312529,98.0438872 93.3053553,98.0438872 C93.5794576,98.0438872 91.6607411,103.680263 89.0567687,110.553891 C84.3970286,122.926422 84.3970286,123.063895 86.7268987,128.975216 C87.9603593,132.274557 90.1531781,135.986317 91.5236899,137.361042 C93.85356,139.423131 94.5388159,139.148186 104.132398,133.236865 C118.933926,123.88873 120.715591,121.689169 121.263796,110.691364 C121.949052,98.7312501 119.619182,95.4319084 107.83278,91.8576215 C103.310091,90.4828958 99.1985559,88.9706976 98.9244536,88.4208073 C98.6503512,87.870917 100.157914,85.3964107 102.213682,82.7844319 L106.188166,78.1103645 L125.649433,78.1103645 L145.110701,78.1103645 L149.222236,82.9219045 L153.19672,87.7334444 L147.988776,90.0704781 C145.110701,91.4452038 141.684421,92.5449844 140.450961,92.5449844 C139.2175,92.5449844 136.339425,94.1946552 134.009555,96.1192712 C130.035071,99.4186129 129.760969,100.243448 129.760969,109.041693 C129.760969,120.589389 131.953788,123.751258 147.029417,133.099393 C156.760051,139.148186 157.445307,139.423131 159.775177,137.361042 C161.145689,135.986317 163.338508,132.274557 164.571968,128.975216 L166.901838,122.926422 L161.419791,108.766748 C158.267614,100.930811 155.800693,94.0571827 155.800693,93.644765 C155.800693,93.2323472 162.105047,95.1569632 169.779913,98.1813598 L183.759133,103.54279 L173.617346,93.2323472 L163.475559,82.9219045 L160.597484,86.6336639 L157.582358,90.2079507 L151.278004,79.0726725 C147.714673,72.8864068 144.836598,67.387504 144.836598,66.7001411 C144.836598,64.7755252 152.237362,61.7511286 152.785567,63.538272 C153.059669,64.50058 159.226972,65.0504703 169.642862,65.0504703 L186.089003,65.0504703 L183.622082,60.7888206 C179.647598,53.9151921 166.490685,42.5049687 156.760051,37.5559562 L147.714673,32.7444162 L136.750579,38.243319 L125.649433,43.6047493 L120.441489,38.5182642 C114.274186,32.4694711 107.010473,29.307602 99.4726583,29.307602 L93.85356,29.307602 L96.8686859,31.7821082 L100.020863,34.2566145 L92.0718947,38.7932093 C81.5189539,44.8420024 70.2807572,55.5648629 66.4433242,63.538272 C63.976403,68.6247571 63.2911471,72.6114617 63.0170448,84.7090479 C62.7429424,95.9817987 62.0576865,100.655866 60.0019188,104.642571 C56.7126905,111.103781 54.9310252,120.039498 56.8497417,120.039498 C57.6720488,120.039498 58.7684582,119.489608 59.1796118,118.664773 C61.3724306,115.227959 62.1947377,117.839937 60.5501235,123.201368 C59.5907653,126.363237 58.3573047,134.336646 57.8091,141.072802 Z M100.157914,78.7977273 C96.7316347,84.8465204 93.5794576,89.795533 93.3053553,89.795533 C93.0312529,89.795533 91.2495876,87.3210267 89.3308711,84.2966302 C87.1380522,80.8598159 84.8081822,78.7977273 83.0265169,78.7977273 C77.1333162,78.7977273 68.0879384,71.3742085 68.0879384,66.425196 C68.0879384,65.6003606 73.7070367,65.0504703 83.0265169,65.0504703 C92.4830482,65.0504703 98.2391977,64.50058 98.5133001,63.538272 C99.0615048,61.7511286 106.462268,64.7755252 106.462268,66.7001411 C106.462268,67.387504 103.584194,72.8864068 100.157914,78.7977273 Z" id="Combined-Shape"></path>
                </g>
            </g>
        </g>
    </g>
</svg>